<svg width="185" height="63" viewBox="0 0 185 63" fill="none" xmlns="http://www.w3.org/2000/svg">
<path d="M0.879395 31.6476C0.879395 14.4325 14.9835 0.464844 32.4059 0.464844C49.8282 0.464844 63.9323 14.4152 63.9323 31.6476C63.9323 48.8799 49.8282 62.8303 32.4059 62.8303C14.9835 62.8303 0.879395 48.8799 0.879395 31.6476Z" fill="#ED1D24"/>
<path d="M8.57769 21.9772L5.45508 38.1386H10.5337L11.7736 31.7335H16.5729L15.3329 38.1386H20.38L23.5062 21.96L18.4066 21.9772L17.4461 27.1076H12.6119L13.6598 21.9772H8.57769Z" fill="white"/>
<path d="M43.7017 21.9775L40.5791 38.1389H45.291L48.4345 21.9775H43.7017Z" fill="white"/>
<path d="M55.5389 26.3478C61.8225 26.3478 61.9622 33.6166 57.9314 36.9677C56.6391 38.056 54.753 38.246 52.6083 38.246C46.6041 38.246 46.0453 31.6163 49.4823 28.1616C51.3684 26.296 53.286 26.3478 55.5389 26.3478ZM54.5434 29.4018C53.024 29.4018 52.3778 31.0428 51.9762 32.442C51.6094 33.8066 52.2032 35.2058 53.4431 35.2058C54.6831 35.2058 55.6087 33.7548 55.9231 32.5284C56.2898 31.0428 56.1152 29.4018 54.5434 29.4018Z" fill="white"/>
<path d="M29.4579 37.0504C27.8512 38.0523 26.7859 38.1387 24.8649 38.1387C22.7517 38.1387 21.1973 36.5495 21.8785 34.2694C23.2057 29.177 30.5547 31.3155 30.9214 30.1789C31.1485 29.5052 30.8341 28.7625 29.4894 28.7625C28.6686 28.7625 28.0573 29.488 27.8826 30.2998H23.4328C24.2536 27.1733 25.9127 26.3096 30.4499 26.3096C34.2571 26.3096 35.7206 28.5724 35.043 31.0737L33.7507 36.4251C33.5585 37.1506 33.4712 37.5997 33.838 37.8761L33.7856 38.1007H29.3357C29.3357 37.7725 29.423 37.4097 29.4579 37.047M29.9469 32.58C29.0213 33.1327 26.2795 32.9427 26 34.1692C25.773 34.8947 26.0873 35.3438 26.9256 35.3438C28.9864 35.3438 29.4929 34.221 29.9469 32.58Z" fill="white"/>
<path d="M34.7461 38.1393L36.9466 26.7109H41.4663L39.3043 38.1393H34.7461Z" fill="white"/>
<path d="M37.2432 25.1214L37.8719 21.9775H42.3567L41.7804 25.1214H37.4003H37.2432Z" fill="white"/>
<path d="M81.9691 32.3388C82.1088 31.6651 82.1438 31.026 82.0914 30.4214C82.039 29.8168 81.8818 29.2813 81.6373 28.8322C81.3928 28.3831 81.0435 28.0203 80.6069 27.7612C80.1703 27.5021 79.6289 27.3639 79.0002 27.3639C78.2667 27.3639 77.6205 27.5021 77.0267 27.7958C76.4329 28.0722 75.9265 28.4695 75.4724 28.9531C75.0183 29.4368 74.6516 30.0068 74.3547 30.6632C74.0578 31.3196 73.8482 32.0106 73.726 32.7706C73.5688 33.5134 73.5339 34.1871 73.6212 34.7571C73.7085 35.3272 73.8831 35.8108 74.1626 36.2081C74.442 36.6054 74.8088 36.9164 75.2628 37.1236C75.7169 37.3309 76.2408 37.4346 76.8346 37.4346C77.4808 37.4346 78.0921 37.2964 78.6509 37.0373C79.2098 36.7782 79.7162 36.4154 80.1528 35.9663C80.5894 35.5172 80.9737 34.9817 81.2705 34.3598C81.6024 33.738 81.8294 33.0643 81.9691 32.3388ZM84.2569 21.8052H85.6541L82.0914 38.3293H80.6942L81.1308 36.2392H81.0784C80.799 36.6365 80.4672 36.982 80.083 37.2757C79.6988 37.5693 79.2971 37.8284 78.8779 38.0184C78.4588 38.2257 78.0396 38.3639 77.6205 38.4848C77.2014 38.5885 76.7822 38.6403 76.398 38.6403C75.42 38.6403 74.6341 38.4848 74.0054 38.1566C73.3942 37.8284 72.9226 37.3966 72.6083 36.8438C72.2939 36.291 72.1193 35.6174 72.0843 34.8573C72.0494 34.0973 72.1193 33.2681 72.3114 32.4044C72.5035 31.5753 72.7829 30.7807 73.1497 30.0206C73.5164 29.2606 73.988 28.5869 74.5468 28.0169C75.1057 27.4468 75.7693 26.9804 76.5202 26.635C77.2712 26.2895 78.1095 26.1168 79.0176 26.1168C79.8734 26.1168 80.6418 26.3068 81.3579 26.6868C82.0564 27.0668 82.5454 27.6196 82.8249 28.3451L84.2569 21.8018V21.8052Z" fill="white"/>
<path d="M88.8469 23.843L89.2835 21.8047H90.8203L90.3837 23.843H88.8469ZM85.8081 38.3288L88.3579 26.4306H89.755L87.2052 38.3288H85.8081Z" fill="white"/>
<path d="M101.313 32.4417C101.47 31.7162 101.522 31.0598 101.47 30.4379C101.417 29.816 101.278 29.2806 101.033 28.8314C100.789 28.3823 100.439 28.0196 99.9853 27.7605C99.5312 27.5014 98.9899 27.3632 98.3437 27.3632C97.7499 27.3632 97.191 27.4668 96.6496 27.6741C96.1082 27.8814 95.6018 28.175 95.1477 28.5896C94.6937 28.9869 94.292 29.4706 93.9602 30.0406C93.6283 30.6106 93.3838 31.2843 93.2092 32.0271C93.0171 32.7699 92.9298 33.4781 92.9472 34.1345C92.9647 34.7909 93.0869 35.3609 93.3314 35.8446C93.5759 36.3283 93.9252 36.7256 94.3793 37.002C94.8508 37.2783 95.4446 37.4338 96.1607 37.4338C96.7894 37.4338 97.3832 37.2956 97.942 37.0365C98.5009 36.7774 99.0073 36.4146 99.4439 35.9655C99.898 35.5164 100.282 34.9809 100.597 34.3763C100.946 33.7545 101.173 33.1153 101.313 32.4417ZM102.584 26.4511H103.981L101.676 37.192C101.501 37.9866 101.257 38.7466 100.942 39.4721C100.628 40.1976 100.191 40.8368 99.65 41.3895C99.1086 41.9423 98.445 42.3741 97.6416 42.7023C96.8383 43.0305 95.8777 43.2033 94.7251 43.2033C93.8344 43.2033 93.1009 43.0996 92.5246 42.8751C91.9308 42.6505 91.4768 42.3741 91.1449 42.0286C90.8131 41.6832 90.5861 41.3204 90.4638 40.9231C90.3416 40.5258 90.3241 40.1458 90.3765 39.783H91.8609C91.8609 40.2322 91.9483 40.5949 92.1229 40.8713C92.2975 41.1477 92.5246 41.3722 92.804 41.545C93.0835 41.7004 93.4153 41.8214 93.782 41.8732C94.1488 41.9423 94.5504 41.9595 94.9696 41.9595C95.9127 41.9595 96.6986 41.8041 97.3447 41.4759C97.9909 41.1477 98.5149 40.7331 98.9165 40.2149C99.3182 39.6967 99.65 39.1094 99.8771 38.453C100.104 37.7966 100.279 37.1229 100.418 36.4319C99.8072 37.1747 99.0737 37.7275 98.218 38.0902C97.3447 38.4702 96.489 38.6602 95.6332 38.6602C94.7251 38.6602 93.9567 38.4875 93.3629 38.142C92.7516 37.7965 92.2975 37.3302 91.9832 36.7601C91.6688 36.1901 91.4767 35.5164 91.4243 34.7564C91.3719 33.9963 91.4418 33.2017 91.6165 32.3726C91.8086 31.4916 92.088 30.6797 92.4548 29.9197C92.8215 29.1596 93.293 28.486 93.8519 27.9332C94.4107 27.3804 95.0569 26.9313 95.8079 26.6204C96.5588 26.2922 97.4146 26.1367 98.3926 26.1367C98.7768 26.1367 99.161 26.1885 99.5452 26.2922C99.9294 26.3958 100.279 26.5513 100.611 26.7586C100.942 26.9659 101.239 27.2077 101.501 27.5186C101.763 27.8296 101.938 28.175 102.078 28.5551H102.13L102.584 26.4477V26.4511Z" fill="white"/>
<path d="M108.173 23.843L108.609 21.8047H110.146L109.709 23.843H108.173ZM105.134 38.3288L107.684 26.4306H109.081L106.531 38.3288H105.134Z" fill="white"/>
<path d="M114.299 38.3805C114.124 38.415 113.897 38.4669 113.583 38.536C113.286 38.6051 112.954 38.6569 112.622 38.6569C111.924 38.6569 111.435 38.4841 111.155 38.1387C110.876 37.7932 110.824 37.1713 110.998 36.2904L112.849 27.5878H111.155L111.417 26.4477H113.111L113.827 23.1484H115.225L114.509 26.4477H116.761L116.499 27.5878H114.247L112.5 35.7376C112.43 36.0313 112.395 36.2731 112.36 36.4977C112.326 36.7049 112.343 36.8949 112.395 37.0331C112.448 37.1713 112.553 37.275 112.692 37.3268C112.832 37.3959 113.059 37.4132 113.356 37.4132C113.548 37.4132 113.723 37.3959 113.932 37.3613C114.124 37.3268 114.316 37.2922 114.526 37.2404L114.299 38.3805Z" fill="white"/>
<path d="M125.752 32.0965C125.106 32.3384 124.477 32.4939 123.866 32.5802C123.255 32.6493 122.644 32.7184 122.015 32.7702C120.932 32.8393 120.041 33.0812 119.36 33.4785C118.679 33.8758 118.243 34.4803 118.068 35.2922C117.998 35.655 117.998 35.9832 118.085 36.2423C118.173 36.5186 118.33 36.7259 118.54 36.9159C118.749 37.0887 118.994 37.2269 119.291 37.3132C119.587 37.3996 119.902 37.4342 120.216 37.4342C120.775 37.4342 121.334 37.3651 121.875 37.2269C122.417 37.0887 122.941 36.8814 123.412 36.5877C123.884 36.3114 124.285 35.9486 124.635 35.5168C124.966 35.0849 125.211 34.5667 125.351 33.9621L125.752 32.0965ZM123.534 31.4056C123.796 31.371 124.111 31.3365 124.495 31.2674C124.879 31.1983 125.193 31.1292 125.455 31.0083C125.717 30.9047 125.892 30.7146 125.997 30.4728C126.102 30.2137 126.171 29.9891 126.224 29.7646C126.294 29.4191 126.311 29.0909 126.276 28.7973C126.224 28.5036 126.102 28.2618 125.909 28.0372C125.717 27.8299 125.438 27.6572 125.089 27.5363C124.739 27.4153 124.303 27.3462 123.761 27.3462C122.801 27.3462 121.963 27.5363 121.246 27.9163C120.53 28.2963 120.007 29.0045 119.675 30.0237H118.26C118.47 29.3155 118.749 28.7109 119.133 28.2272C119.518 27.7263 119.954 27.329 120.461 27.018C120.967 26.7071 121.526 26.4826 122.137 26.3271C122.748 26.1889 123.377 26.1025 124.023 26.1025C124.635 26.1025 125.176 26.1716 125.682 26.2925C126.189 26.4307 126.608 26.638 126.94 26.9144C127.272 27.1908 127.499 27.5708 127.621 28.0545C127.743 28.5209 127.743 29.1082 127.603 29.7991L126.206 36.2734C126.084 36.8089 126.102 37.1543 126.259 37.2925C126.416 37.4307 126.818 37.3962 127.446 37.1889L127.219 38.2599C127.114 38.2944 126.94 38.3289 126.713 38.398C126.486 38.4671 126.276 38.4844 126.067 38.4844C125.857 38.4844 125.665 38.4671 125.455 38.4153C125.001 38.3462 124.757 38.1217 124.687 37.7762C124.617 37.4307 124.635 37.0507 124.704 36.6361C123.971 37.2752 123.202 37.7762 122.364 38.1044C121.543 38.4326 120.688 38.6053 119.797 38.6053C119.273 38.6053 118.784 38.5362 118.33 38.398C117.876 38.2599 117.492 38.0526 117.177 37.7589C116.863 37.4653 116.653 37.1198 116.531 36.6879C116.409 36.2734 116.409 35.7724 116.531 35.1851C116.95 33.1641 118.609 31.9722 121.488 31.6094L123.531 31.4021L123.534 31.4056Z" fill="white"/>
<path d="M129.643 38.3805C129.468 38.415 129.241 38.4669 128.927 38.536C128.63 38.6051 128.298 38.6569 127.966 38.6569C127.268 38.6569 126.779 38.4841 126.499 38.1387C126.22 37.7932 126.168 37.1713 126.342 36.2904L128.193 27.5878H126.499L126.761 26.4477H128.455L129.171 23.1484H130.569L129.853 26.4477H132.105L131.843 27.5878H129.591L127.844 35.7376C127.774 36.0313 127.739 36.2731 127.704 36.4977C127.67 36.7049 127.687 36.8949 127.739 37.0331C127.792 37.1713 127.897 37.275 128.036 37.3268C128.176 37.3959 128.403 37.4132 128.7 37.4132C128.892 37.4132 129.067 37.3959 129.276 37.3613C129.468 37.3268 129.66 37.2922 129.87 37.2404L129.643 38.3805Z" fill="white"/>
<path d="M144.152 40.0566L143.891 41.1967H132.28L132.542 40.0566H144.152Z" fill="white"/>
<path d="M146.192 38.3288L149.738 21.8047H151.135L149.79 28.0889C150.471 27.5016 151.152 27.0352 151.816 26.6724C152.497 26.3097 153.248 26.1197 154.086 26.1197C154.837 26.1197 155.483 26.2406 156.077 26.4997C156.653 26.7588 157.09 27.1907 157.387 27.8125C157.597 28.2444 157.666 28.6762 157.631 29.1253C157.597 29.5745 157.527 30.0408 157.404 30.5418L155.728 38.3288H154.331L156.007 30.5763C156.234 29.5054 156.182 28.6935 155.815 28.158C155.448 27.6225 154.715 27.3461 153.597 27.3461C153.161 27.3461 152.759 27.4152 152.375 27.5361C151.99 27.6743 151.624 27.8471 151.292 28.0544C150.96 28.2616 150.663 28.5207 150.401 28.7971C150.139 29.0735 149.93 29.3672 149.755 29.6781C149.546 30.0581 149.371 30.4209 149.266 30.7836C149.161 31.1291 149.057 31.5264 148.969 31.9237L147.607 38.3288H146.192Z" fill="white"/>
<path d="M169.797 26.4512H171.194L168.644 38.3494H167.247L167.596 36.6911C167.369 36.8984 167.107 37.1229 166.828 37.3648C166.549 37.5893 166.234 37.7966 165.885 38.0039C165.536 38.1939 165.151 38.3494 164.732 38.4876C164.313 38.6258 163.824 38.6776 163.3 38.6776C162.497 38.6776 161.851 38.5739 161.344 38.3494C160.855 38.1248 160.471 37.8139 160.226 37.4166C159.982 37.0193 159.842 36.5529 159.807 36.0347C159.772 35.4992 159.825 34.9292 159.965 34.3073L161.641 26.4857H163.038L161.362 34.29C161.152 35.3092 161.222 36.1038 161.589 36.6393C161.955 37.1748 162.689 37.4511 163.789 37.4511C164.366 37.4511 164.907 37.3475 165.396 37.1229C165.902 36.8984 166.339 36.5875 166.741 36.1902C167.142 35.7929 167.474 35.3092 167.771 34.7737C168.05 34.2209 168.278 33.6164 168.417 32.9599L169.797 26.4512Z" fill="white"/>
<path d="M174.823 32.3383C174.666 33.0638 174.614 33.7202 174.666 34.342C174.719 34.9639 174.858 35.4994 175.103 35.9485C175.347 36.3976 175.697 36.7604 176.151 37.0195C176.605 37.2786 177.164 37.4168 177.81 37.4168C178.404 37.4168 178.962 37.3131 179.504 37.1058C180.045 36.8985 180.534 36.6049 180.988 36.1903C181.442 35.793 181.827 35.3094 182.158 34.7393C182.49 34.1693 182.735 33.4956 182.909 32.7528C183.101 32.0101 183.171 31.3018 183.171 30.6454C183.154 29.989 183.032 29.419 182.805 28.9353C182.578 28.4516 182.228 28.0543 181.757 27.778C181.285 27.5016 180.691 27.3461 179.975 27.3461C179.347 27.3461 178.753 27.4843 178.194 27.7434C177.635 28.0198 177.129 28.3653 176.675 28.8144C176.221 29.2635 175.836 29.799 175.522 30.4036C175.19 31.0254 174.963 31.6646 174.823 32.3383ZM173.549 38.3288H172.151L175.697 21.8047H177.094L175.679 28.348C176.29 27.6052 177.024 27.0525 177.88 26.6897C178.753 26.3097 179.609 26.1197 180.464 26.1197C181.373 26.1197 182.141 26.2924 182.735 26.6379C183.346 26.9834 183.8 27.4498 184.114 28.0198C184.429 28.5898 184.621 29.2635 184.673 30.0236C184.726 30.7836 184.656 31.5782 184.481 32.4074C184.289 33.2883 184.01 34.1002 183.643 34.8602C183.276 35.6203 182.805 36.294 182.246 36.8467C181.687 37.3995 181.041 37.8486 180.29 38.1595C179.539 38.4877 178.683 38.6432 177.705 38.6432C177.321 38.6432 176.937 38.5914 176.552 38.4877C176.168 38.3841 175.819 38.2286 175.487 38.0214C175.155 37.8141 174.858 37.5722 174.596 37.2786C174.334 36.9849 174.16 36.6394 174.02 36.2421H173.968L173.549 38.3323V38.3288Z" fill="white"/>
</svg>